<svg width="25" height="25" viewBox="0 0 25 25" fill="none" xmlns="http://www.w3.org/2000/svg">
<path d="M21.4764 0.0546875H2.80973C1.34307 0.0546875 0.143066 1.28418 0.143066 2.78689V21.9123C0.143066 23.4164 1.34307 24.6445 2.80973 24.6445H12.1431V15.0818H9.4764V11.7007H12.1431V8.9002C12.1431 5.94395 13.7591 3.86748 17.1644 3.86748L19.5684 3.87021V7.42891H17.9724C16.6471 7.42891 16.1431 8.44802 16.1431 9.39336V11.7021H19.5671L18.8097 15.0818H16.1431V24.6445H21.4764C22.9431 24.6445 24.1431 23.4164 24.1431 21.9123V2.78689C24.1431 1.28418 22.9431 0.0546875 21.4764 0.0546875Z" fill="#00E6EC"/>
</svg>
