<svg width="24" height="26" viewBox="0 0 24 26" fill="none" xmlns="http://www.w3.org/2000/svg">
<path d="M4.818 12.9104C4.818 16.9733 8.034 20.2697 12 20.2697C15.9654 20.2697 19.1826 16.974 19.1826 12.9104C19.1826 12.2711 19.2 11.6809 19.2 11.0661H21V20.2875C21 21.5047 20.388 22.1318 19.2 22.1318H4.2C3.012 22.1318 2.4 21.5047 2.4 20.2875V11.0661H4.8C4.8 11.6809 4.818 12.2711 4.818 12.9104ZM0 3.79968V22.0211C0 24.0922 1.086 25.2056 3.108 25.2056H20.892C22.9134 25.2056 24 24.0922 24 22.0211V3.79968C24 1.72856 22.9134 0.615234 20.892 0.615234H3.108C1.086 0.615234 0 1.72856 0 3.79968ZM7.236 12.9104C7.236 10.2116 9.366 8.02983 12 8.02983C12.6257 8.02927 13.2454 8.15512 13.8235 8.40019C14.4017 8.64526 14.927 9.00474 15.3695 9.45806C15.8119 9.91137 16.1627 10.4496 16.4019 11.042C16.6411 11.6344 16.764 12.2693 16.7634 12.9104C16.764 13.5515 16.6413 14.1864 16.4021 14.7789C16.1629 15.3713 15.8121 15.9096 15.3696 16.3629C14.9272 16.8163 14.4018 17.1757 13.8236 17.4208C13.2454 17.6658 12.6257 17.7916 12 17.791C11.3743 17.7916 10.7545 17.6658 10.1763 17.4208C9.59805 17.1758 9.07264 16.8163 8.63015 16.363C8.18765 15.9096 7.83675 15.3714 7.59752 14.7789C7.3583 14.1865 7.23545 13.5515 7.236 12.9104ZM17.4 4.61116C17.4 4.10091 17.802 3.68903 18.3 3.68903H20.1C20.598 3.68903 21 4.10091 21 4.61116V6.45544C21 6.96569 20.598 7.37758 20.1 7.37758H18.3C17.802 7.37758 17.4 6.96569 17.4 6.45544V4.61116Z" fill="#00E6EC"/>
</svg>
