<svg width="441" height="107" viewBox="0 0 441 107" fill="none" xmlns="http://www.w3.org/2000/svg">
<path d="M154.735 31.5781C154.735 32.6719 154.532 33.7344 154.125 34.7656C153.719 35.7656 153.422 36.7969 153.235 37.8594C152.547 38.7656 151.907 39.7031 151.313 40.6719C150.719 41.6406 150.11 42.6094 149.485 43.5781C148.86 44.5469 148.204 45.4844 147.516 46.3906C146.829 47.2656 146.047 48.0625 145.172 48.7812C145.204 48.8125 145.219 48.875 145.219 48.9688C145.219 49.1562 145.125 49.3125 144.938 49.4375C144.782 49.5312 144.735 49.6562 144.797 49.8125C144.016 50.625 143.25 51.4219 142.5 52.2031C141.75 52.9844 141.063 53.8594 140.438 54.8281C139.75 55.1719 139.188 55.7344 138.75 56.5156C138.563 56.5156 138.422 56.5625 138.329 56.6562C138.235 56.7188 138.11 56.7812 137.954 56.8438C136.954 58.0625 135.907 59.2188 134.813 60.3125C133.719 61.4062 132.547 62.4062 131.297 63.3125C130.829 63.6562 130.36 63.9688 129.891 64.25C129.422 64.5312 128.969 64.8281 128.532 65.1406C128.25 65.3281 127.969 65.5469 127.688 65.7969C127.438 66.0469 127.172 66.2812 126.891 66.5C125.985 67.2812 125.094 67.9375 124.219 68.4688C123.344 68.9688 122.313 69.3125 121.125 69.5C121.032 69.8438 120.985 70.2188 120.985 70.625V71.75C120.985 72.125 120.969 72.5156 120.938 72.9219C120.907 73.2969 120.797 73.6562 120.61 74V74.1406C120.61 74.4531 120.688 74.75 120.844 75.0312C121 75.3438 121.079 75.6562 121.079 75.9688C121.079 76.1875 120.969 76.375 120.75 76.5312H121.969C121.969 76.9688 122.094 77.3438 122.344 77.6562C122.625 77.9688 122.766 78.2031 122.766 78.3594C122.766 78.8906 122.704 79.4688 122.579 80.0938C122.485 80.75 122.172 81.1875 121.641 81.4062V81.6875C121.641 82 121.61 82.2969 121.547 82.5781C121.485 82.8906 121.344 83.1875 121.125 83.4688C120.938 83.4688 120.75 83.4688 120.563 83.4688C120.407 83.5 120.25 83.5156 120.094 83.5156C118.782 83.5156 117.61 83.2031 116.579 82.5781C116.235 81.7656 116 80.9219 115.875 80.0469C115.782 79.2031 115.735 78.3438 115.735 77.4688C115.735 75.75 115.86 74.0469 116.11 72.3594C116.36 70.6719 116.563 68.9844 116.719 67.2969L117.422 65.9375C117.485 65.0625 117.594 64.1875 117.75 63.3125C117.907 62.4062 118.063 61.5156 118.219 60.6406C118.375 59.7656 118.5 58.8906 118.594 58.0156C118.719 57.1406 118.766 56.2656 118.735 55.3906C118.985 54.8594 119.157 54.2969 119.25 53.7031C119.375 53.1094 119.438 52.5312 119.438 51.9688C119.438 51.6562 119.422 51.3438 119.391 51.0312C119.36 50.7188 119.266 50.4219 119.11 50.1406C119.297 50.0156 119.422 49.8594 119.485 49.6719C119.547 49.4844 119.641 49.3125 119.766 49.1562C119.86 47.9375 119.938 46.7344 120 45.5469C120.063 44.3281 120.094 43.125 120.094 41.9375C120.094 41.2812 120.079 40.6406 120.047 40.0156C120.016 39.3594 119.969 38.7031 119.907 38.0469C119.875 37.7969 119.813 37.5 119.719 37.1562C119.657 36.8125 119.625 36.5469 119.625 36.3594C119.625 36.1094 119.641 35.8594 119.672 35.6094C119.704 35.3281 119.719 35.0469 119.719 34.7656C119.719 34.4531 119.688 34.1562 119.625 33.875C119.563 33.5625 119.454 33.2812 119.297 33.0312C117.797 33.4688 116.454 34.0625 115.266 34.8125C114.079 35.5312 112.875 36.3438 111.657 37.25C111.157 37.5938 110.61 38 110.016 38.4688C109.422 38.9375 108.86 39.2969 108.329 39.5469C108.235 39.6094 108.125 39.6562 108 39.6875C107.844 39.6875 107.719 39.6875 107.625 39.6875C107.282 39.6875 106.969 39.6719 106.688 39.6406C106.407 39.5781 106.125 39.5469 105.844 39.5469C105.407 39.1094 104.891 38.7656 104.297 38.5156C104.204 38.1406 104.157 37.7344 104.157 37.2969C104.157 36.8594 104.204 36.4375 104.297 36.0312C104.36 35.625 104.469 35.2188 104.625 34.8125C105 34.6875 105.407 34.5469 105.844 34.3906C106.25 34.2344 106.657 34.0625 107.063 33.875C107.438 33.6562 107.782 33.4219 108.094 33.1719C108.407 32.8906 108.657 32.5469 108.844 32.1406C109.032 32.2344 109.204 32.2812 109.36 32.2812C109.516 32.2812 109.657 32.2656 109.782 32.2344C109.907 32.2031 110.047 32.1719 110.204 32.1406C110.766 31.7969 111.329 31.4375 111.891 31.0625C112.485 30.6875 113.094 30.375 113.719 30.125C113.907 30.0625 114.016 29.9844 114.047 29.8906C114.079 29.7969 114.079 29.6562 114.047 29.4688C114.766 29.25 115.516 29 116.297 28.7188C117.079 28.4062 117.735 27.9844 118.266 27.4531H119.11C119.579 27.1094 120.079 26.8281 120.61 26.6094C121.141 26.3906 121.672 26.1875 122.204 26C122.766 25.7812 123.313 25.5625 123.844 25.3438C124.375 25.0938 124.875 24.7812 125.344 24.4062C125.532 24.3438 125.688 24.3125 125.813 24.3125C125.969 24.3125 126.141 24.3438 126.329 24.4062C126.641 24.25 126.907 24.0625 127.125 23.8438L127.875 23.0938C128.375 23.0938 128.829 23.0469 129.235 22.9531C129.641 22.8594 130.032 22.7344 130.407 22.5781C130.782 22.4219 131.141 22.25 131.485 22.0625C131.86 21.8437 132.266 21.625 132.704 21.4062C132.891 21.4687 133.032 21.5469 133.125 21.6406C133.219 21.7031 133.375 21.7344 133.594 21.7344C133.907 21.5156 134.235 21.3594 134.579 21.2656C134.954 21.1406 135.329 21.0469 135.704 20.9844C136.079 20.9219 136.438 20.8438 136.782 20.75C137.157 20.6562 137.485 20.4844 137.766 20.2344C138.766 20.2344 139.766 20.2188 140.766 20.1875C141.797 20.125 142.813 20.0938 143.813 20.0938C145.25 20.0938 146.704 20.2031 148.172 20.4219C149.672 20.6406 151.016 21.1875 152.204 22.0625C152.672 23.1875 153.344 24.1406 154.219 24.9219C154.282 25.2656 154.344 25.5937 154.407 25.9062C154.5 26.1875 154.61 26.4688 154.735 26.75C154.516 27.2188 154.407 27.7344 154.407 28.2969C154.407 28.8594 154.454 29.4219 154.547 29.9844C154.672 30.5156 154.735 31.0469 154.735 31.5781ZM150.375 30.4531C150.219 30.1719 150.11 29.8594 150.047 29.5156C150.016 29.1406 150.016 28.7812 150.047 28.4375C149.641 28.125 149.329 27.7188 149.11 27.2188C148.891 26.7188 148.579 26.3438 148.172 26.0938C147.891 25.9375 147.485 25.8438 146.954 25.8125C146.454 25.7812 146.032 25.7188 145.688 25.625C145.282 25.5 145 25.375 144.844 25.25C144.719 25.125 144.438 25.0625 144 25.0625C143.625 25.0625 143.25 25.1094 142.875 25.2031C142.5 25.2656 142.125 25.2969 141.75 25.2969C141.438 25.2969 141.141 25.2344 140.86 25.1094C140.579 24.9844 140.282 24.9219 139.969 24.9219C139.625 24.9219 139.297 25.0312 138.985 25.25C138.704 25.4688 138.36 25.5312 137.954 25.4375C137.766 25.5937 137.657 25.7188 137.625 25.8125C137.625 25.9062 137.61 25.9844 137.579 26.0469C137.547 26.0781 137.469 26.0938 137.344 26.0938H136.688C136.032 26.0938 135.36 26.1875 134.672 26.375C134.016 26.5625 133.422 26.875 132.891 27.3125C132.797 27.2812 132.704 27.2656 132.61 27.2656C132.547 27.2344 132.469 27.2188 132.375 27.2188C131.844 27.2188 131.329 27.375 130.829 27.6875C130.36 27.9688 129.829 28.1094 129.235 28.1094C128.86 28.4844 128.407 28.7812 127.875 29C127.344 29.2188 126.797 29.4375 126.235 29.6562C125.704 29.8438 125.204 30.0781 124.735 30.3594C124.266 30.6094 123.907 30.9844 123.657 31.4844C123.625 31.7344 123.704 31.8906 123.891 31.9531C124.079 32.0156 124.172 32.1719 124.172 32.4219C124.172 32.6406 124.125 32.9062 124.032 33.2188C123.969 33.5312 123.938 33.8438 123.938 34.1562C123.938 34.875 124.016 35.5781 124.172 36.2656C124.329 36.9531 124.485 37.6562 124.641 38.375C124.485 38.4688 124.375 38.6094 124.313 38.7969C124.25 38.9844 124.141 39.125 123.985 39.2188C124.422 40.5312 124.641 41.875 124.641 43.25C124.641 44.3438 124.516 45.4219 124.266 46.4844C124.047 47.5156 123.891 48.5781 123.797 49.6719V49.7188C123.797 49.9062 123.86 50.0312 123.985 50.0938C124.11 50.1562 124.172 50.2656 124.172 50.4219C124.172 50.5156 124.157 50.5938 124.125 50.6562C123.782 52.7812 123.438 54.9062 123.094 57.0312C122.782 59.1562 122.516 61.2969 122.297 63.4531H122.672C123.485 63.4531 124.204 63.2188 124.829 62.75C125.485 62.25 126.032 61.7031 126.469 61.1094H127.219C129.469 59.1406 131.625 57.1094 133.688 55.0156C135.782 52.9219 137.766 50.6719 139.641 48.2656C139.891 48.2656 140.063 48.2031 140.157 48.0781C140.25 47.9531 140.407 47.8594 140.625 47.7969C141.282 46.8906 141.969 46 142.688 45.125C143.407 44.2188 144.188 43.3594 145.032 42.5469C145.063 42.2344 145.141 41.9531 145.266 41.7031C145.422 41.4531 145.579 41.2188 145.735 41C145.891 40.7812 146.032 40.5469 146.157 40.2969C146.282 40.0469 146.344 39.75 146.344 39.4062C146.5 39.3438 146.672 39.2812 146.86 39.2188C147.047 39.125 147.219 39 147.375 38.8438C147.438 38.5312 147.547 38.25 147.704 38C147.86 37.75 147.938 37.4688 147.938 37.1562C147.938 37.0312 147.907 36.875 147.844 36.6875C148.344 36.4688 148.735 36.1094 149.016 35.6094C149.297 35.1094 149.516 34.5625 149.672 33.9688C149.829 33.3438 149.938 32.7188 150 32.0938C150.094 31.4688 150.219 30.9219 150.375 30.4531ZM182.759 52.1094C182.634 52.4219 182.509 52.7188 182.384 53C182.259 53.2812 182.166 53.5938 182.103 53.9375C181.884 54.0938 181.634 54.2188 181.353 54.3125C181.103 54.375 180.838 54.4531 180.556 54.5469C180.275 54.6094 180.009 54.7031 179.759 54.8281C179.541 54.9219 179.369 55.0781 179.244 55.2969C179.15 55.7656 179.103 56.2031 179.103 56.6094C179.103 57.1406 179.197 57.5938 179.384 57.9688C179.291 58.25 179.228 58.5469 179.197 58.8594C179.166 59.1719 179.15 59.4688 179.15 59.75C179.15 60.7812 179.275 61.8125 179.525 62.8438C179.775 63.8438 179.916 64.8594 179.947 65.8906C179.947 66.0469 179.931 66.2188 179.9 66.4062C179.869 66.5938 179.853 66.7656 179.853 66.9219C179.853 67.5781 180.103 68.0156 180.603 68.2344C180.509 68.3906 180.463 68.5312 180.463 68.6562C180.463 68.9062 180.494 69.125 180.556 69.3125C180.619 69.5 180.634 69.7031 180.603 69.9219C180.759 70.2344 180.916 70.5156 181.072 70.7656C181.228 70.9844 181.338 71.2656 181.4 71.6094C181.181 72.0469 180.916 72.4531 180.603 72.8281C180.291 73.1719 180.072 73.6094 179.947 74.1406C179.822 74.1094 179.681 74.0938 179.525 74.0938C179.306 74.0938 179.134 74.1406 179.009 74.2344C178.884 74.3281 178.775 74.4375 178.681 74.5625C178.619 74.7188 178.541 74.8594 178.447 74.9844C178.353 75.1406 178.228 75.25 178.072 75.3125H177.931C177.775 75.3438 177.634 75.3281 177.509 75.2656C177.416 75.2344 177.322 75.2188 177.228 75.2188C177.166 75.2188 177.041 75.25 176.853 75.3125C176.603 75 176.431 74.625 176.338 74.1875C176.244 73.7812 176.197 73.375 176.197 72.9688C176.197 72.5312 176.259 72.1406 176.384 71.7969C176.041 71.5156 175.822 71.0938 175.728 70.5312C175.666 69.9688 175.588 69.5 175.494 69.125C175.244 67.9688 174.947 66.8438 174.603 65.75C174.291 64.6562 174.103 63.5312 174.041 62.375C174.009 61.9375 173.994 61.5156 173.994 61.1094V58.6719C173.994 58.2656 174.009 57.875 174.041 57.5C174.041 57.2188 174.056 56.9531 174.088 56.7031C174.15 56.4219 174.181 56.1406 174.181 55.8594C174.181 55.4844 174.056 55.125 173.806 54.7812C171.588 54.875 169.478 55.2812 167.478 56C165.509 56.6875 163.541 57.5156 161.572 58.4844C161.447 59.2031 161.369 59.9062 161.338 60.5938C161.306 61.2812 161.291 61.9844 161.291 62.7031V64.7656C161.291 65.5469 161.322 66.2031 161.384 66.7344C161.541 67.6406 161.994 68.3438 162.744 68.8438C163.525 69.3125 164.306 69.6719 165.088 69.9219C165.056 70.3906 164.963 70.7969 164.806 71.1406C164.65 71.4531 164.447 71.75 164.197 72.0312C163.978 72.2812 163.728 72.5312 163.447 72.7812C163.166 73.0312 162.884 73.3125 162.603 73.625C162.353 73.4688 162.103 73.3594 161.853 73.2969C161.603 73.2344 161.338 73.2031 161.056 73.2031C160.775 73.1719 160.494 73.1406 160.213 73.1094C159.931 73.0781 159.65 73.0156 159.369 72.9219L158.338 71.5156C157.994 71.0469 157.619 70.5781 157.213 70.1094V69.6875C157.213 68.8438 157.056 68.0312 156.744 67.25C156.431 66.4688 156.197 65.6719 156.041 64.8594C156.134 64.5781 156.197 64.2969 156.228 64.0156C156.259 63.7344 156.275 63.4375 156.275 63.125C156.275 62.5 156.244 61.8906 156.181 61.2969C156.15 60.7031 156.166 60.1094 156.228 59.5156H155.994C155.713 59.5156 155.416 59.5938 155.103 59.75C154.791 59.875 154.478 60.0312 154.166 60.2188C153.884 60.375 153.603 60.5312 153.322 60.6875C153.072 60.8125 152.853 60.875 152.666 60.875C152.572 60.875 152.478 60.8594 152.384 60.8281C152.291 60.7969 152.181 60.7812 152.056 60.7812C151.9 60.7812 151.713 60.8438 151.494 60.9688C151.275 61.0938 151.041 61.2344 150.791 61.3906C150.509 61.5156 150.228 61.6406 149.947 61.7656C149.666 61.8906 149.384 61.9531 149.103 61.9531C148.666 61.9531 148.228 61.7656 147.791 61.3906C147.728 61.1406 147.713 60.9062 147.744 60.6875C147.744 60.4688 147.744 60.2344 147.744 59.9844C147.744 59.7344 147.697 59.4688 147.603 59.1875C147.822 58.7812 148.119 58.4688 148.494 58.25C148.838 58 149.213 57.7812 149.619 57.5938C149.994 57.375 150.384 57.1719 150.791 56.9844C151.197 56.7656 151.541 56.4844 151.822 56.1406H152.103C152.541 56.1406 152.931 56.0469 153.275 55.8594C153.65 55.6719 154.072 55.5938 154.541 55.625C154.697 55.5625 154.806 55.3281 154.869 54.9219L155.056 54.9688C155.744 54.9688 156.353 54.7344 156.884 54.2656C157.228 52.3281 157.509 50.375 157.728 48.4062C157.947 46.4375 158.056 44.4688 158.056 42.5C158.056 42.3125 157.994 42.125 157.869 41.9375C157.806 41.6875 157.775 41.4531 157.775 41.2344V40.5312C157.775 40.1875 157.791 39.8281 157.822 39.4531C157.853 39.0781 157.931 38.7031 158.056 38.3281C158.369 38.1406 158.697 38.0469 159.041 38.0469C159.447 38.0469 159.838 38.1094 160.213 38.2344C160.619 38.3281 161.009 38.4062 161.384 38.4688C161.666 38.75 161.869 39.0625 161.994 39.4062C162.15 39.75 162.244 40.1094 162.275 40.4844C162.306 40.8281 162.306 41.1875 162.275 41.5625C162.275 41.9062 162.275 42.25 162.275 42.5938C162.275 43.2812 162.353 43.9531 162.509 44.6094C162.666 45.2656 162.744 45.9062 162.744 46.5312C162.744 46.6875 162.681 46.8125 162.556 46.9062C162.463 46.9688 162.416 47.1719 162.416 47.5156C162.416 47.8594 162.447 48.2188 162.509 48.5938C162.572 48.9688 162.603 49.3438 162.603 49.7188C162.603 50.1562 162.541 50.6094 162.416 51.0781C162.291 51.5469 162.181 52 162.088 52.4375C163.963 52.2812 165.884 52.0469 167.853 51.7344C169.822 51.4219 171.697 50.9219 173.478 50.2344C173.509 50.1719 173.525 50.0781 173.525 49.9531C173.525 49.7656 173.509 49.5781 173.478 49.3906C173.447 49.2031 173.431 49 173.431 48.7812C173.431 48.4062 173.556 48.1094 173.806 47.8906C173.65 47.0156 173.541 46.1406 173.478 45.2656C173.416 44.3906 173.384 43.5156 173.384 42.6406V39.9688C173.384 39.0938 173.369 38.2188 173.338 37.3438C173.588 37.1875 173.853 37.1094 174.134 37.1094C174.478 37.1094 174.791 37.2031 175.072 37.3906C175.384 37.5469 175.744 37.625 176.15 37.625C176.431 37.625 176.666 37.5781 176.853 37.4844C177.197 37.7969 177.431 38.2031 177.556 38.7031C177.681 39.2031 177.791 39.7188 177.884 40.25C177.978 40.7812 178.072 41.3125 178.166 41.8438C178.291 42.3438 178.525 42.75 178.869 43.0625L178.916 43.2031C178.916 43.3281 178.853 43.4219 178.728 43.4844C178.603 43.5469 178.541 43.6719 178.541 43.8594V44.0469C178.666 44.5469 178.759 45.0625 178.822 45.5938C178.884 46.125 178.931 46.6719 178.963 47.2344C179.025 47.7656 179.103 48.2969 179.197 48.8281C179.291 49.3281 179.463 49.7969 179.713 50.2344C179.869 50.2031 180.072 50.1875 180.322 50.1875C180.947 50.1875 181.431 50.4062 181.775 50.8438C182.15 51.25 182.478 51.6719 182.759 52.1094ZM216.925 46.8594C216.737 47.1406 216.628 47.4531 216.597 47.7969C216.565 48.1406 216.55 48.4531 216.55 48.7344C216.55 49.1094 216.55 49.4844 216.55 49.8594C216.581 50.2031 216.597 50.5469 216.597 50.8906V51.5938C216.534 51.8125 216.44 52.0312 216.315 52.25C216.19 52.4688 216.097 52.6875 216.034 52.9062C215.597 54.0625 215.378 55.2188 215.378 56.375V56.4688C215.222 56.8438 215.065 57.1875 214.909 57.5C214.784 57.8125 214.659 58.125 214.534 58.4375C214.409 58.7188 214.315 59.0312 214.253 59.375C214.19 59.6875 214.175 60.0625 214.206 60.5C213.768 61.5938 213.19 62.5938 212.472 63.5C211.753 64.375 211.05 65.2812 210.362 66.2188C209.706 66.4688 209.097 66.7969 208.534 67.2031C208.003 67.6094 207.487 68.0625 206.987 68.5625C206.018 68.875 205.065 69.2344 204.128 69.6406C203.19 70.0469 202.347 70.5938 201.597 71.2812C201.003 71.3438 200.409 71.4375 199.815 71.5625C199.222 71.6875 198.643 71.875 198.081 72.125H197.518C197.237 72.125 197.034 72.0625 196.909 71.9375C196.503 72.1562 196.081 72.3125 195.643 72.4062C195.206 72.4688 194.768 72.5 194.331 72.5C193.768 72.5 193.206 72.4688 192.643 72.4062C192.112 72.3125 191.565 72.2188 191.003 72.125C190.69 71.6875 190.253 71.3594 189.69 71.1406C189.128 70.8906 188.628 70.6562 188.19 70.4375C187.284 69.1875 186.628 67.9844 186.222 66.8281C185.815 65.6406 185.393 64.3125 184.956 62.8438C185.018 62.4062 185.128 61.9844 185.284 61.5781C185.44 61.1406 185.503 60.6719 185.472 60.1719C186.034 58.5469 186.768 57.0781 187.675 55.7656C188.612 54.4219 189.675 53.1406 190.862 51.9219C190.862 51.7344 190.893 51.5781 190.956 51.4531C191.05 51.3281 191.065 51.1406 191.003 50.8906C191.034 50.9219 191.097 50.9375 191.19 50.9375C191.44 50.9375 191.597 50.875 191.659 50.75C191.722 50.5938 191.737 50.4219 191.706 50.2344C192.831 49.5156 193.847 48.6875 194.753 47.75C195.69 46.8125 196.753 46.0312 197.94 45.4062C198.034 45.125 198.19 44.8906 198.409 44.7031C198.628 44.5156 198.8 44.2969 198.925 44.0469C199.925 43.7656 200.831 43.3438 201.643 42.7812C202.456 42.2188 203.315 41.7188 204.222 41.2812C204.722 41 205.19 40.8125 205.628 40.7188C206.097 40.5938 206.597 40.4688 207.128 40.3438C207.315 40.2812 207.487 40.2344 207.643 40.2031C207.8 40.1719 207.972 40.1562 208.159 40.1562C208.722 40.1562 209.268 40.2656 209.8 40.4844C210.331 40.6719 210.878 40.7656 211.44 40.7656C211.597 40.7656 211.722 40.7656 211.815 40.7656C211.94 40.7344 212.065 40.7031 212.19 40.6719C212.722 41.3281 213.393 41.8281 214.206 42.1719C214.393 42.6406 214.612 43.0469 214.862 43.3906C215.143 43.7344 215.425 44.0781 215.706 44.4219C215.987 44.7344 216.237 45.0938 216.456 45.5C216.706 45.875 216.862 46.3281 216.925 46.8594ZM212.237 49.2969C212.237 49.1406 212.222 49 212.19 48.875C211.878 48.7812 211.581 48.6562 211.3 48.5C211.018 48.3438 210.706 48.2656 210.362 48.2656C210.143 48.2656 209.925 48.3125 209.706 48.4062C209.675 48.1875 209.581 48.0312 209.425 47.9375C209.3 47.8438 209.143 47.7656 208.956 47.7031C208.8 47.6094 208.628 47.5469 208.44 47.5156C208.284 47.4531 208.143 47.3594 208.018 47.2344C207.925 46.9844 207.815 46.7344 207.69 46.4844C207.597 46.2031 207.409 46 207.128 45.875C206.847 46.1562 206.518 46.3906 206.143 46.5781C205.768 46.7344 205.378 46.8906 204.972 47.0469C204.597 47.2031 204.222 47.3906 203.847 47.6094C203.503 47.8281 203.206 48.0938 202.956 48.4062H202.112C201.925 48.75 201.659 49.0156 201.315 49.2031C200.972 49.3594 200.675 49.5938 200.425 49.9062C199.925 50.1562 199.456 50.4688 199.018 50.8438C198.612 51.1875 198.206 51.5625 197.8 51.9688C197.393 52.3438 196.987 52.7344 196.581 53.1406C196.206 53.5469 195.8 53.9219 195.362 54.2656C194.956 55.1406 194.503 55.9062 194.003 56.5625C193.534 57.1875 193.081 57.8281 192.643 58.4844C192.237 59.1406 191.878 59.8594 191.565 60.6406C191.284 61.3906 191.143 62.3281 191.143 63.4531V63.9219C191.143 64.0781 191.159 64.2344 191.19 64.3906C191.597 64.8281 191.925 65.2969 192.175 65.7969C192.456 66.2969 192.909 66.6562 193.534 66.875C194.159 67.125 194.815 67.2344 195.503 67.2031C196.222 67.1719 196.909 67.25 197.565 67.4375C199.065 67.1562 200.503 66.7031 201.878 66.0781C203.284 65.4219 204.612 64.6406 205.862 63.7344C206.05 63.5781 206.268 63.4219 206.518 63.2656C206.768 63.0781 206.972 62.8906 207.128 62.7031C207.284 62.5469 207.409 62.375 207.503 62.1875C207.628 62 207.753 61.8281 207.878 61.6719C208.128 61.2656 208.409 60.8594 208.722 60.4531C209.034 60.0469 209.362 59.6719 209.706 59.3281C209.862 58.6406 210.065 57.9844 210.315 57.3594C210.565 56.7031 210.815 56.0625 211.065 55.4375C211.315 54.8125 211.518 54.1719 211.675 53.5156C211.862 52.8594 211.956 52.1719 211.956 51.4531C211.956 51.2969 211.94 51.125 211.909 50.9375C211.909 50.75 211.893 50.5781 211.862 50.4219C212.112 50.0781 212.237 49.7031 212.237 49.2969ZM262.012 43.8594C261.887 44.2656 261.684 44.6406 261.402 44.9844L260.605 45.9688C260.355 46.2812 260.137 46.625 259.949 47C259.793 47.3438 259.746 47.75 259.809 48.2188C259.746 48.2188 259.668 48.2188 259.574 48.2188C259.48 48.1875 259.402 48.1719 259.34 48.1719C258.84 48.1719 258.449 48.2969 258.168 48.5469C257.918 48.7656 257.574 48.9531 257.137 49.1094C257.074 48.9219 256.996 48.75 256.902 48.5938C256.809 48.4062 256.668 48.2812 256.48 48.2188C255.73 48.375 254.98 48.5 254.23 48.5938C253.48 48.6562 252.73 48.75 251.98 48.875C251.637 48.9375 251.293 49.0312 250.949 49.1562C250.605 49.25 250.246 49.3438 249.871 49.4375C249.684 49.5 249.48 49.5312 249.262 49.5312C249.043 49.5 248.824 49.5 248.605 49.5312C247.855 49.5625 247.043 49.625 246.168 49.7188C245.293 49.7812 244.512 50.0156 243.824 50.4219C243.512 50.3594 243.184 50.3125 242.84 50.2812C242.496 50.25 242.152 50.2344 241.809 50.2344C241.059 50.2344 240.23 50.3125 239.324 50.4688C238.449 50.5938 237.668 50.8594 236.98 51.2656C236.824 51.2031 236.652 51.1562 236.465 51.125C236.309 51.0938 236.121 51.0781 235.902 51.0781C235.84 51.0781 235.793 51.0938 235.762 51.125C235.73 51.125 235.684 51.125 235.621 51.125C235.59 51.4062 235.621 51.6875 235.715 51.9688C235.84 52.2188 236.043 52.4219 236.324 52.5781C236.199 52.9219 236.137 53.2969 236.137 53.7031C236.137 54.2344 236.168 54.7656 236.23 55.2969C236.324 55.8281 236.371 56.3594 236.371 56.8906C236.371 57.4844 236.293 57.9531 236.137 58.2969C236.449 59.2344 236.605 60.2344 236.605 61.2969C236.605 61.6719 236.574 62.0469 236.512 62.4219C236.48 62.7656 236.465 63.1406 236.465 63.5469C236.465 63.8906 236.59 64.1719 236.84 64.3906C237.09 64.5781 237.215 64.8438 237.215 65.1875C237.215 65.3125 237.184 65.4375 237.121 65.5625C237.559 65.4688 237.98 65.3438 238.387 65.1875C238.793 65 239.215 64.9062 239.652 64.9062C239.902 64.9062 240.137 64.9531 240.355 65.0469C240.605 65.1406 240.824 65.2656 241.012 65.4219C240.98 65.5781 240.949 65.75 240.918 65.9375C240.918 66.125 240.918 66.3125 240.918 66.5C240.918 66.8438 240.918 67.1719 240.918 67.4844C240.949 67.7656 240.98 68.0781 241.012 68.4219C240.762 68.8594 240.465 69.25 240.121 69.5938C239.809 69.9375 239.59 70.375 239.465 70.9062C238.996 70.9062 238.574 71.0156 238.199 71.2344C237.855 71.4219 237.527 71.6406 237.215 71.8906C236.902 72.1094 236.59 72.3281 236.277 72.5469C235.965 72.7344 235.621 72.8281 235.246 72.8281C234.777 72.8281 234.449 72.7656 234.262 72.6406C234.074 72.4844 233.934 72.3281 233.84 72.1719C233.746 72.0156 233.652 71.875 233.559 71.75C233.496 71.625 233.34 71.5781 233.09 71.6094C233.027 71.2031 232.902 70.8281 232.715 70.4844C232.527 70.1094 232.324 69.75 232.105 69.4062C231.918 69.0625 231.715 68.7188 231.496 68.375C231.309 68 231.168 67.625 231.074 67.25C230.887 66.4375 230.809 65.5938 230.84 64.7188C230.871 63.8438 230.73 63 230.418 62.1875C230.48 61.75 230.527 61.3125 230.559 60.875C230.59 60.4062 230.605 59.9531 230.605 59.5156C230.605 58.6406 230.574 57.7812 230.512 56.9375C230.48 56.0625 230.449 55.1719 230.418 54.2656C230.199 53.9844 230.059 53.6719 229.996 53.3281C229.965 52.9531 229.934 52.5938 229.902 52.25C229.809 52.1562 229.699 52.0625 229.574 51.9688C229.48 51.875 229.418 51.75 229.387 51.5938C229.137 51.5312 228.949 51.5 228.824 51.5C228.387 51.5 228.012 51.6094 227.699 51.8281C227.418 52.0156 227.152 52.1094 226.902 52.1094C226.652 52.1094 226.418 52.0781 226.199 52.0156C225.98 51.9531 225.762 51.9219 225.543 51.9219C225.355 51.9219 225.246 51.9688 225.215 52.0625C225.215 52.125 225.152 52.1875 225.027 52.25C224.934 52.3125 224.715 52.375 224.371 52.4375C224.027 52.5 223.637 52.5625 223.199 52.625C222.793 52.6562 222.387 52.6875 221.98 52.7188C221.605 52.75 221.355 52.7656 221.23 52.7656C220.73 52.7656 220.355 52.6719 220.105 52.4844C219.824 52.2656 219.496 52.0312 219.121 51.7812C219.184 51.5938 219.215 51.4688 219.215 51.4062C219.215 51.0938 219.121 50.8438 218.934 50.6562C218.746 50.4375 218.652 50.25 218.652 50.0938C218.652 49.75 218.793 49.4844 219.074 49.2969C219.324 49.1094 219.465 48.8125 219.496 48.4062C220.215 48.0938 220.949 47.8594 221.699 47.7031C222.449 47.5469 223.215 47.4219 223.996 47.3281C224.777 47.2344 225.543 47.125 226.293 47C227.074 46.875 227.84 46.6719 228.59 46.3906C228.809 46.4219 229.012 46.4531 229.199 46.4844C229.418 46.4844 229.637 46.4844 229.855 46.4844C230.793 46.4844 231.715 46.3906 232.621 46.2031C233.559 45.9844 234.512 45.875 235.48 45.875C235.73 45.875 235.98 45.8906 236.23 45.9219C236.48 45.9531 236.73 46 236.98 46.0625C238.23 45.875 239.465 45.6719 240.684 45.4531C241.934 45.2344 243.215 45.0469 244.527 44.8906C245.152 44.8281 245.762 44.7812 246.355 44.75C246.98 44.6875 247.605 44.6094 248.23 44.5156C248.449 44.4844 248.605 44.4375 248.699 44.375C248.824 44.2812 248.887 44.1094 248.887 43.8594C249.168 43.9844 249.48 44.0469 249.824 44.0469C250.355 44.0469 250.871 43.9531 251.371 43.7656C251.871 43.5781 252.387 43.4844 252.918 43.4844C253.043 43.4844 253.152 43.5 253.246 43.5312C253.34 43.5312 253.434 43.5312 253.527 43.5312C253.746 43.5312 253.855 43.4375 253.855 43.25C253.887 43.0312 254.043 42.8906 254.324 42.8281C254.543 42.7656 254.855 42.7188 255.262 42.6875C255.668 42.6562 256.09 42.625 256.527 42.5938C256.996 42.5312 257.418 42.4688 257.793 42.4062C258.199 42.3125 258.496 42.1875 258.684 42.0312L259.012 41.5156C259.574 41.5469 259.98 41.7969 260.23 42.2656C260.512 42.7031 260.668 43.1875 260.699 43.7188C260.824 43.8438 260.996 43.9062 261.215 43.9062C261.465 43.875 261.684 43.8594 261.871 43.8594H262.012ZM286.614 46.8594C286.427 47.1406 286.318 47.4531 286.286 47.7969C286.255 48.1406 286.239 48.4531 286.239 48.7344C286.239 49.1094 286.239 49.4844 286.239 49.8594C286.271 50.2031 286.286 50.5469 286.286 50.8906V51.5938C286.224 51.8125 286.13 52.0312 286.005 52.25C285.88 52.4688 285.786 52.6875 285.724 52.9062C285.286 54.0625 285.068 55.2188 285.068 56.375V56.4688C284.911 56.8438 284.755 57.1875 284.599 57.5C284.474 57.8125 284.349 58.125 284.224 58.4375C284.099 58.7188 284.005 59.0312 283.943 59.375C283.88 59.6875 283.864 60.0625 283.896 60.5C283.458 61.5938 282.88 62.5938 282.161 63.5C281.443 64.375 280.739 65.2812 280.052 66.2188C279.396 66.4688 278.786 66.7969 278.224 67.2031C277.693 67.6094 277.177 68.0625 276.677 68.5625C275.708 68.875 274.755 69.2344 273.818 69.6406C272.88 70.0469 272.036 70.5938 271.286 71.2812C270.693 71.3438 270.099 71.4375 269.505 71.5625C268.911 71.6875 268.333 71.875 267.771 72.125H267.208C266.927 72.125 266.724 72.0625 266.599 71.9375C266.193 72.1562 265.771 72.3125 265.333 72.4062C264.896 72.4688 264.458 72.5 264.021 72.5C263.458 72.5 262.896 72.4688 262.333 72.4062C261.802 72.3125 261.255 72.2188 260.693 72.125C260.38 71.6875 259.943 71.3594 259.38 71.1406C258.818 70.8906 258.318 70.6562 257.88 70.4375C256.974 69.1875 256.318 67.9844 255.911 66.8281C255.505 65.6406 255.083 64.3125 254.646 62.8438C254.708 62.4062 254.818 61.9844 254.974 61.5781C255.13 61.1406 255.193 60.6719 255.161 60.1719C255.724 58.5469 256.458 57.0781 257.364 55.7656C258.302 54.4219 259.364 53.1406 260.552 51.9219C260.552 51.7344 260.583 51.5781 260.646 51.4531C260.739 51.3281 260.755 51.1406 260.693 50.8906C260.724 50.9219 260.786 50.9375 260.88 50.9375C261.13 50.9375 261.286 50.875 261.349 50.75C261.411 50.5938 261.427 50.4219 261.396 50.2344C262.521 49.5156 263.536 48.6875 264.443 47.75C265.38 46.8125 266.443 46.0312 267.63 45.4062C267.724 45.125 267.88 44.8906 268.099 44.7031C268.318 44.5156 268.489 44.2969 268.614 44.0469C269.614 43.7656 270.521 43.3438 271.333 42.7812C272.146 42.2188 273.005 41.7188 273.911 41.2812C274.411 41 274.88 40.8125 275.318 40.7188C275.786 40.5938 276.286 40.4688 276.818 40.3438C277.005 40.2812 277.177 40.2344 277.333 40.2031C277.489 40.1719 277.661 40.1562 277.849 40.1562C278.411 40.1562 278.958 40.2656 279.489 40.4844C280.021 40.6719 280.568 40.7656 281.13 40.7656C281.286 40.7656 281.411 40.7656 281.505 40.7656C281.63 40.7344 281.755 40.7031 281.88 40.6719C282.411 41.3281 283.083 41.8281 283.896 42.1719C284.083 42.6406 284.302 43.0469 284.552 43.3906C284.833 43.7344 285.114 44.0781 285.396 44.4219C285.677 44.7344 285.927 45.0938 286.146 45.5C286.396 45.875 286.552 46.3281 286.614 46.8594ZM281.927 49.2969C281.927 49.1406 281.911 49 281.88 48.875C281.568 48.7812 281.271 48.6562 280.989 48.5C280.708 48.3438 280.396 48.2656 280.052 48.2656C279.833 48.2656 279.614 48.3125 279.396 48.4062C279.364 48.1875 279.271 48.0312 279.114 47.9375C278.989 47.8438 278.833 47.7656 278.646 47.7031C278.489 47.6094 278.318 47.5469 278.13 47.5156C277.974 47.4531 277.833 47.3594 277.708 47.2344C277.614 46.9844 277.505 46.7344 277.38 46.4844C277.286 46.2031 277.099 46 276.818 45.875C276.536 46.1562 276.208 46.3906 275.833 46.5781C275.458 46.7344 275.068 46.8906 274.661 47.0469C274.286 47.2031 273.911 47.3906 273.536 47.6094C273.193 47.8281 272.896 48.0938 272.646 48.4062H271.802C271.614 48.75 271.349 49.0156 271.005 49.2031C270.661 49.3594 270.364 49.5938 270.114 49.9062C269.614 50.1562 269.146 50.4688 268.708 50.8438C268.302 51.1875 267.896 51.5625 267.489 51.9688C267.083 52.3438 266.677 52.7344 266.271 53.1406C265.896 53.5469 265.489 53.9219 265.052 54.2656C264.646 55.1406 264.193 55.9062 263.693 56.5625C263.224 57.1875 262.771 57.8281 262.333 58.4844C261.927 59.1406 261.568 59.8594 261.255 60.6406C260.974 61.3906 260.833 62.3281 260.833 63.4531V63.9219C260.833 64.0781 260.849 64.2344 260.88 64.3906C261.286 64.8281 261.614 65.2969 261.864 65.7969C262.146 66.2969 262.599 66.6562 263.224 66.875C263.849 67.125 264.505 67.2344 265.193 67.2031C265.911 67.1719 266.599 67.25 267.255 67.4375C268.755 67.1562 270.193 66.7031 271.568 66.0781C272.974 65.4219 274.302 64.6406 275.552 63.7344C275.739 63.5781 275.958 63.4219 276.208 63.2656C276.458 63.0781 276.661 62.8906 276.818 62.7031C276.974 62.5469 277.099 62.375 277.193 62.1875C277.318 62 277.443 61.8281 277.568 61.6719C277.818 61.2656 278.099 60.8594 278.411 60.4531C278.724 60.0469 279.052 59.6719 279.396 59.3281C279.552 58.6406 279.755 57.9844 280.005 57.3594C280.255 56.7031 280.505 56.0625 280.755 55.4375C281.005 54.8125 281.208 54.1719 281.364 53.5156C281.552 52.8594 281.646 52.1719 281.646 51.4531C281.646 51.2969 281.63 51.125 281.599 50.9375C281.599 50.75 281.583 50.5781 281.552 50.4219C281.802 50.0781 281.927 49.7031 281.927 49.2969ZM332.217 30.6406C332.03 30.9531 331.889 31.2812 331.795 31.625C331.733 31.9688 331.686 32.3125 331.655 32.6562H331.327C331.077 32.6562 330.858 32.625 330.67 32.5625C330.483 32.4688 330.264 32.3906 330.014 32.3281C330.139 33.5156 330.217 34.7188 330.248 35.9375C330.28 37.1562 330.295 38.3594 330.295 39.5469C330.295 41.0469 330.28 42.5469 330.248 44.0469C330.217 45.5156 330.202 47 330.202 48.5C330.202 49.2188 330.155 49.9375 330.061 50.6562C329.998 51.3438 329.811 52.0156 329.498 52.6719C329.561 53.2031 329.608 53.7188 329.639 54.2188C329.67 54.6875 329.686 55.1875 329.686 55.7188C329.686 57.1875 329.592 58.6562 329.405 60.125C329.248 61.5625 329.045 63 328.795 64.4375C328.702 65 328.608 65.5781 328.514 66.1719C328.452 66.7344 328.342 67.2812 328.186 67.8125C328.123 67.9688 328.03 68.125 327.905 68.2812C327.811 68.4375 327.733 68.5938 327.67 68.75C327.295 69.5625 326.873 70.375 326.405 71.1875C325.967 71.9688 325.436 72.6875 324.811 73.3438C324.342 73.375 323.889 73.5 323.452 73.7188C323.014 73.9375 322.608 74.0469 322.233 74.0469C321.889 74.0469 321.608 73.875 321.389 73.5312L320.92 73.7188C320.764 73.7812 320.592 73.8281 320.405 73.8594C319.342 73.4219 318.327 72.8906 317.358 72.2656C316.42 71.6406 315.639 70.8281 315.014 69.8281H314.827C314.545 69.8281 314.342 69.7656 314.217 69.6406C314.061 69.4844 313.889 69.2969 313.702 69.0781C313.545 68.8281 313.405 68.6094 313.28 68.4219C312.905 67.8281 312.498 67.2344 312.061 66.6406C311.623 66.0469 311.108 65.5469 310.514 65.1406C310.264 64.2031 309.889 63.4062 309.389 62.75C308.889 62.0625 308.373 61.3281 307.842 60.5469C307.436 58.9844 306.686 57.5312 305.592 56.1875C305.748 56.0312 305.827 55.9219 305.827 55.8594C305.827 55.7031 305.764 55.5781 305.639 55.4844C305.545 55.3594 305.498 55.2344 305.498 55.1094C305.498 54.9844 305.53 54.8906 305.592 54.8281C305.186 54.3906 304.842 53.9062 304.561 53.375C304.311 52.8125 304.061 52.25 303.811 51.6875C303.592 51.125 303.342 50.5625 303.061 50C302.811 49.4375 302.498 48.9219 302.123 48.4531C301.78 48.6719 301.561 48.9375 301.467 49.25C301.405 49.5625 301.373 49.8906 301.373 50.2344C301.373 50.4844 301.373 50.7344 301.373 50.9844C301.405 51.2344 301.42 51.4844 301.42 51.7344C301.42 52.3594 301.342 52.9688 301.186 53.5625C301.061 54.1562 300.967 54.7656 300.905 55.3906C300.873 55.8281 300.858 56.3125 300.858 56.8438C300.889 57.375 300.873 57.9062 300.811 58.4375C300.78 58.9688 300.702 59.4844 300.577 59.9844C300.452 60.4844 300.233 60.9062 299.92 61.25C299.733 63.0312 299.498 64.8125 299.217 66.5938C298.936 68.375 298.67 70.1562 298.42 71.9375C298.358 72.25 298.295 72.6406 298.233 73.1094C298.17 73.5781 298.092 74.0469 297.998 74.5156C297.936 75.0156 297.873 75.4844 297.811 75.9219C297.78 76.3906 297.764 76.7656 297.764 77.0469C297.764 77.3594 297.842 77.6562 297.998 77.9375C298.155 78.25 298.233 78.5469 298.233 78.8281C298.233 79.0469 298.155 79.1719 297.998 79.2031C297.873 79.2656 297.795 79.3906 297.764 79.5781C297.983 80.2656 298.092 81.0469 298.092 81.9219C298.092 82.1719 298.077 82.4219 298.045 82.6719C298.014 82.9531 297.967 83.2188 297.905 83.4688C297.842 83.625 297.733 83.7656 297.577 83.8906C297.42 84.0469 297.342 84.1875 297.342 84.3125C297.342 84.4375 297.405 84.5312 297.53 84.5938C297.342 84.7812 297.108 84.9062 296.827 84.9688C296.545 85.0312 296.342 85.2031 296.217 85.4844C295.905 85.2344 295.592 85 295.28 84.7812C294.967 84.5938 294.67 84.375 294.389 84.125L294.248 84.0781C294.03 84.0781 293.842 84.1406 293.686 84.2656C293.561 84.4219 293.389 84.5 293.17 84.5C293.108 84.5 293.045 84.4844 292.983 84.4531C292.952 84.4531 292.905 84.4531 292.842 84.4531L292.561 83.2344C292.467 82.8281 292.342 82.4531 292.186 82.1094C292.436 81.4531 292.592 80.7031 292.655 79.8594C292.748 79.0469 292.842 78.2188 292.936 77.375C293.03 76.5312 293.17 75.7188 293.358 74.9375C293.545 74.1875 293.889 73.5312 294.389 72.9688C294.389 72.7188 294.295 72.5469 294.108 72.4531C293.952 72.3594 293.873 72.1562 293.873 71.8438C293.873 71.7812 293.889 71.6719 293.92 71.5156C293.983 71.3594 294.03 71.1875 294.061 71C294.123 70.8125 294.17 70.6406 294.202 70.4844C294.264 70.2969 294.311 70.1562 294.342 70.0625C294.592 68.8438 294.78 67.5938 294.905 66.3125C295.061 65.0312 295.452 63.8438 296.077 62.75C296.045 62.625 296.03 62.4375 296.03 62.1875C296.03 61.6562 296.077 61.1406 296.17 60.6406C296.295 60.1406 296.358 59.625 296.358 59.0938C296.358 58.6562 296.311 58.25 296.217 57.875C296.311 57.5312 296.436 57.2031 296.592 56.8906C296.78 56.5469 296.873 56.2031 296.873 55.8594C296.873 55.5469 296.764 55.3281 296.545 55.2031C296.702 55.0781 296.795 54.9375 296.827 54.7812C296.889 54.625 296.92 54.4688 296.92 54.3125C296.952 54.1562 296.983 54.0156 297.014 53.8906C297.077 53.7344 297.202 53.6094 297.389 53.5156C297.358 53.2031 297.327 52.9062 297.295 52.625C297.295 52.3438 297.295 52.0469 297.295 51.7344C297.295 50.5781 297.358 49.4375 297.483 48.3125C297.608 47.1562 297.67 45.9844 297.67 44.7969C297.67 43.6406 297.577 42.5156 297.389 41.4219L297.905 40.3906C297.592 40.1406 297.389 39.7344 297.295 39.1719C297.202 38.6094 297.139 38 297.108 37.3438C297.077 36.6875 297.014 36.0469 296.92 35.4219C296.858 34.7656 296.686 34.2344 296.405 33.8281V33.4062C296.405 32.9062 296.373 32.4219 296.311 31.9531C296.248 31.4844 296.217 31.0156 296.217 30.5469V30.125C296.373 30.0625 296.483 29.9531 296.545 29.7969C296.639 29.6406 296.702 29.4844 296.733 29.3281H296.92C297.295 29.3281 297.67 29.2969 298.045 29.2344C298.42 29.1719 298.795 29.1406 299.17 29.1406H299.78C300.155 29.4219 300.483 29.75 300.764 30.125C301.045 30.5 301.389 30.8438 301.795 31.1562V32C302.077 32.375 302.295 32.7812 302.452 33.2188C302.608 33.6562 302.764 34.1094 302.92 34.5781C303.108 35.0469 303.295 35.5 303.483 35.9375C303.67 36.375 303.936 36.75 304.28 37.0625C304.217 37.375 304.186 37.625 304.186 37.8125C304.186 38.2188 304.217 38.625 304.28 39.0312C304.373 39.4375 304.436 39.8281 304.467 40.2031C304.592 40.3594 304.702 40.5625 304.795 40.8125C304.889 41.0312 305.045 41.1719 305.264 41.2344C305.42 42.4531 305.733 43.6094 306.202 44.7031C306.702 45.7969 307.061 46.9375 307.28 48.125C307.53 48.375 307.717 48.6875 307.842 49.0625C307.967 49.4062 308.092 49.75 308.217 50.0938C308.373 50.4375 308.53 50.7656 308.686 51.0781C308.873 51.3594 309.139 51.5625 309.483 51.6875C309.67 52.4375 309.905 53.1875 310.186 53.9375C310.467 54.6875 310.905 55.3281 311.498 55.8594C311.498 56.4844 311.592 57.0312 311.78 57.5C311.998 57.9375 312.233 58.3594 312.483 58.7656C312.764 59.1406 313.014 59.5156 313.233 59.8906C313.452 60.2656 313.592 60.6719 313.655 61.1094C314.092 61.7656 314.592 62.375 315.155 62.9375C315.748 63.5 316.342 64.0469 316.936 64.5781C317.561 65.0781 318.17 65.5938 318.764 66.125C319.358 66.6562 319.905 67.2188 320.405 67.8125C320.748 67.8438 321.03 67.9219 321.248 68.0469C321.498 68.1406 321.78 68.2188 322.092 68.2812C322.311 68.125 322.483 67.9375 322.608 67.7188C322.764 67.4688 322.905 67.2188 323.03 66.9688C323.155 66.7188 323.28 66.4844 323.405 66.2656C323.561 66.0156 323.748 65.7969 323.967 65.6094C323.967 65.5469 323.952 65.5 323.92 65.4688C323.92 65.4062 323.92 65.3438 323.92 65.2812C323.92 64.9375 323.967 64.6719 324.061 64.4844C324.186 64.2656 324.327 64.0312 324.483 63.7812V62.5625C324.733 62.0938 324.905 61.5938 324.998 61.0625C325.092 60.5312 325.139 60 325.139 59.4688C325.139 59.0312 325.123 58.5938 325.092 58.1562C325.061 57.6875 325.045 57.2188 325.045 56.75C325.045 56.4688 325.061 56.1875 325.092 55.9062C325.123 55.5938 325.186 55.3125 325.28 55.0625C325.342 55 325.452 54.9062 325.608 54.7812C325.764 54.625 325.842 54.5312 325.842 54.5C325.842 54.3438 325.795 54.1875 325.702 54.0312C325.608 53.875 325.561 53.7188 325.561 53.5625C325.561 53.3438 325.655 53.1719 325.842 53.0469V52.7656C325.842 52.6094 325.811 52.4688 325.748 52.3438C325.717 52.1875 325.623 52.0781 325.467 52.0156C325.623 51.8281 325.733 51.6094 325.795 51.3594C325.858 51.0781 325.889 50.7969 325.889 50.5156C325.92 50.2031 325.92 49.9062 325.889 49.625C325.889 49.3438 325.889 49.0781 325.889 48.8281C325.889 48.5469 325.905 48.25 325.936 47.9375C325.967 47.625 326.092 47.3594 326.311 47.1406C326.217 46.7656 326.155 46.4062 326.123 46.0625C326.092 45.6875 326.077 45.3125 326.077 44.9375C326.077 44.2812 326.108 43.625 326.17 42.9688C326.233 42.3125 326.264 41.6406 326.264 40.9531C326.264 40.7031 326.248 40.4531 326.217 40.2031C326.186 39.9219 326.17 39.6562 326.17 39.4062C326.17 39.1562 326.217 39.0469 326.311 39.0781C326.436 39.0781 326.498 39 326.498 38.8438C326.498 38.625 326.467 38.4062 326.405 38.1875C326.373 37.9688 326.342 37.75 326.311 37.5312C326.248 37 326.202 36.4688 326.17 35.9375C326.139 35.375 326.123 34.8125 326.123 34.25C326.123 33.9062 326.123 33.5625 326.123 33.2188C326.155 32.8438 326.217 32.4844 326.311 32.1406C326.123 31.8594 325.998 31.5938 325.936 31.3438C325.905 31.0625 325.873 30.8125 325.842 30.5938L325.748 29.8906C325.717 29.6406 325.623 29.3906 325.467 29.1406C325.436 29.1094 325.42 29.0156 325.42 28.8594C325.42 28.6094 325.483 28.4219 325.608 28.2969C325.452 27.7656 325.233 27.25 324.952 26.75C324.702 26.25 324.545 25.7031 324.483 25.1094C324.139 24.9219 323.873 24.625 323.686 24.2188C323.53 23.7813 323.452 23.3906 323.452 23.0469C323.452 22.6406 323.561 22.25 323.78 21.875C323.998 21.4687 324.342 21.2656 324.811 21.2656C324.998 21.2656 325.17 21.3281 325.327 21.4531C325.514 21.5469 325.686 21.6719 325.842 21.8281C326.03 21.9531 326.202 22.0781 326.358 22.2031C326.545 22.2969 326.733 22.3438 326.92 22.3438C327.045 22.3438 327.233 22.3125 327.483 22.25C327.827 22.7188 328.17 23.1562 328.514 23.5625C328.889 23.9375 329.264 24.3281 329.639 24.7344C329.639 25.2656 329.733 25.75 329.92 26.1875C330.108 26.625 330.311 27.0469 330.53 27.4531C330.748 27.8281 330.936 28.2031 331.092 28.5781C331.28 28.9531 331.358 29.3594 331.327 29.7969C331.389 30.0156 331.514 30.1719 331.702 30.2656C331.889 30.3594 332.061 30.4844 332.217 30.6406ZM367.32 46.8594C367.132 47.1406 367.023 47.4531 366.992 47.7969C366.96 48.1406 366.945 48.4531 366.945 48.7344C366.945 49.1094 366.945 49.4844 366.945 49.8594C366.976 50.2031 366.992 50.5469 366.992 50.8906V51.5938C366.929 51.8125 366.835 52.0312 366.71 52.25C366.585 52.4688 366.492 52.6875 366.429 52.9062C365.992 54.0625 365.773 55.2188 365.773 56.375V56.4688C365.617 56.8438 365.46 57.1875 365.304 57.5C365.179 57.8125 365.054 58.125 364.929 58.4375C364.804 58.7188 364.71 59.0312 364.648 59.375C364.585 59.6875 364.57 60.0625 364.601 60.5C364.164 61.5938 363.585 62.5938 362.867 63.5C362.148 64.375 361.445 65.2812 360.757 66.2188C360.101 66.4688 359.492 66.7969 358.929 67.2031C358.398 67.6094 357.882 68.0625 357.382 68.5625C356.414 68.875 355.46 69.2344 354.523 69.6406C353.585 70.0469 352.742 70.5938 351.992 71.2812C351.398 71.3438 350.804 71.4375 350.21 71.5625C349.617 71.6875 349.039 71.875 348.476 72.125H347.914C347.632 72.125 347.429 72.0625 347.304 71.9375C346.898 72.1562 346.476 72.3125 346.039 72.4062C345.601 72.4688 345.164 72.5 344.726 72.5C344.164 72.5 343.601 72.4688 343.039 72.4062C342.507 72.3125 341.96 72.2188 341.398 72.125C341.085 71.6875 340.648 71.3594 340.085 71.1406C339.523 70.8906 339.023 70.6562 338.585 70.4375C337.679 69.1875 337.023 67.9844 336.617 66.8281C336.21 65.6406 335.789 64.3125 335.351 62.8438C335.414 62.4062 335.523 61.9844 335.679 61.5781C335.835 61.1406 335.898 60.6719 335.867 60.1719C336.429 58.5469 337.164 57.0781 338.07 55.7656C339.007 54.4219 340.07 53.1406 341.257 51.9219C341.257 51.7344 341.289 51.5781 341.351 51.4531C341.445 51.3281 341.46 51.1406 341.398 50.8906C341.429 50.9219 341.492 50.9375 341.585 50.9375C341.835 50.9375 341.992 50.875 342.054 50.75C342.117 50.5938 342.132 50.4219 342.101 50.2344C343.226 49.5156 344.242 48.6875 345.148 47.75C346.085 46.8125 347.148 46.0312 348.335 45.4062C348.429 45.125 348.585 44.8906 348.804 44.7031C349.023 44.5156 349.195 44.2969 349.32 44.0469C350.32 43.7656 351.226 43.3438 352.039 42.7812C352.851 42.2188 353.71 41.7188 354.617 41.2812C355.117 41 355.585 40.8125 356.023 40.7188C356.492 40.5938 356.992 40.4688 357.523 40.3438C357.71 40.2812 357.882 40.2344 358.039 40.2031C358.195 40.1719 358.367 40.1562 358.554 40.1562C359.117 40.1562 359.664 40.2656 360.195 40.4844C360.726 40.6719 361.273 40.7656 361.835 40.7656C361.992 40.7656 362.117 40.7656 362.21 40.7656C362.335 40.7344 362.46 40.7031 362.585 40.6719C363.117 41.3281 363.789 41.8281 364.601 42.1719C364.789 42.6406 365.007 43.0469 365.257 43.3906C365.539 43.7344 365.82 44.0781 366.101 44.4219C366.382 44.7344 366.632 45.0938 366.851 45.5C367.101 45.875 367.257 46.3281 367.32 46.8594ZM362.632 49.2969C362.632 49.1406 362.617 49 362.585 48.875C362.273 48.7812 361.976 48.6562 361.695 48.5C361.414 48.3438 361.101 48.2656 360.757 48.2656C360.539 48.2656 360.32 48.3125 360.101 48.4062C360.07 48.1875 359.976 48.0312 359.82 47.9375C359.695 47.8438 359.539 47.7656 359.351 47.7031C359.195 47.6094 359.023 47.5469 358.835 47.5156C358.679 47.4531 358.539 47.3594 358.414 47.2344C358.32 46.9844 358.21 46.7344 358.085 46.4844C357.992 46.2031 357.804 46 357.523 45.875C357.242 46.1562 356.914 46.3906 356.539 46.5781C356.164 46.7344 355.773 46.8906 355.367 47.0469C354.992 47.2031 354.617 47.3906 354.242 47.6094C353.898 47.8281 353.601 48.0938 353.351 48.4062H352.507C352.32 48.75 352.054 49.0156 351.71 49.2031C351.367 49.3594 351.07 49.5938 350.82 49.9062C350.32 50.1562 349.851 50.4688 349.414 50.8438C349.007 51.1875 348.601 51.5625 348.195 51.9688C347.789 52.3438 347.382 52.7344 346.976 53.1406C346.601 53.5469 346.195 53.9219 345.757 54.2656C345.351 55.1406 344.898 55.9062 344.398 56.5625C343.929 57.1875 343.476 57.8281 343.039 58.4844C342.632 59.1406 342.273 59.8594 341.96 60.6406C341.679 61.3906 341.539 62.3281 341.539 63.4531V63.9219C341.539 64.0781 341.554 64.2344 341.585 64.3906C341.992 64.8281 342.32 65.2969 342.57 65.7969C342.851 66.2969 343.304 66.6562 343.929 66.875C344.554 67.125 345.21 67.2344 345.898 67.2031C346.617 67.1719 347.304 67.25 347.96 67.4375C349.46 67.1562 350.898 66.7031 352.273 66.0781C353.679 65.4219 355.007 64.6406 356.257 63.7344C356.445 63.5781 356.664 63.4219 356.914 63.2656C357.164 63.0781 357.367 62.8906 357.523 62.7031C357.679 62.5469 357.804 62.375 357.898 62.1875C358.023 62 358.148 61.8281 358.273 61.6719C358.523 61.2656 358.804 60.8594 359.117 60.4531C359.429 60.0469 359.757 59.6719 360.101 59.3281C360.257 58.6406 360.46 57.9844 360.71 57.3594C360.96 56.7031 361.21 56.0625 361.46 55.4375C361.71 54.8125 361.914 54.1719 362.07 53.5156C362.257 52.8594 362.351 52.1719 362.351 51.4531C362.351 51.2969 362.335 51.125 362.304 50.9375C362.304 50.75 362.289 50.5781 362.257 50.4219C362.507 50.0781 362.632 49.7031 362.632 49.2969ZM412.407 43.8594C412.282 44.2656 412.079 44.6406 411.798 44.9844L411.001 45.9688C410.751 46.2812 410.532 46.625 410.344 47C410.188 47.3438 410.141 47.75 410.204 48.2188C410.141 48.2188 410.063 48.2188 409.969 48.2188C409.876 48.1875 409.798 48.1719 409.735 48.1719C409.235 48.1719 408.844 48.2969 408.563 48.5469C408.313 48.7656 407.969 48.9531 407.532 49.1094C407.469 48.9219 407.391 48.75 407.298 48.5938C407.204 48.4062 407.063 48.2812 406.876 48.2188C406.126 48.375 405.376 48.5 404.626 48.5938C403.876 48.6562 403.126 48.75 402.376 48.875C402.032 48.9375 401.688 49.0312 401.344 49.1562C401.001 49.25 400.641 49.3438 400.266 49.4375C400.079 49.5 399.876 49.5312 399.657 49.5312C399.438 49.5 399.219 49.5 399.001 49.5312C398.251 49.5625 397.438 49.625 396.563 49.7188C395.688 49.7812 394.907 50.0156 394.219 50.4219C393.907 50.3594 393.579 50.3125 393.235 50.2812C392.891 50.25 392.548 50.2344 392.204 50.2344C391.454 50.2344 390.626 50.3125 389.719 50.4688C388.844 50.5938 388.063 50.8594 387.376 51.2656C387.219 51.2031 387.048 51.1562 386.86 51.125C386.704 51.0938 386.516 51.0781 386.298 51.0781C386.235 51.0781 386.188 51.0938 386.157 51.125C386.126 51.125 386.079 51.125 386.016 51.125C385.985 51.4062 386.016 51.6875 386.11 51.9688C386.235 52.2188 386.438 52.4219 386.719 52.5781C386.594 52.9219 386.532 53.2969 386.532 53.7031C386.532 54.2344 386.563 54.7656 386.626 55.2969C386.719 55.8281 386.766 56.3594 386.766 56.8906C386.766 57.4844 386.688 57.9531 386.532 58.2969C386.844 59.2344 387.001 60.2344 387.001 61.2969C387.001 61.6719 386.969 62.0469 386.907 62.4219C386.876 62.7656 386.86 63.1406 386.86 63.5469C386.86 63.8906 386.985 64.1719 387.235 64.3906C387.485 64.5781 387.61 64.8438 387.61 65.1875C387.61 65.3125 387.579 65.4375 387.516 65.5625C387.954 65.4688 388.376 65.3438 388.782 65.1875C389.188 65 389.61 64.9062 390.048 64.9062C390.298 64.9062 390.532 64.9531 390.751 65.0469C391.001 65.1406 391.219 65.2656 391.407 65.4219C391.376 65.5781 391.344 65.75 391.313 65.9375C391.313 66.125 391.313 66.3125 391.313 66.5C391.313 66.8438 391.313 67.1719 391.313 67.4844C391.344 67.7656 391.376 68.0781 391.407 68.4219C391.157 68.8594 390.86 69.25 390.516 69.5938C390.204 69.9375 389.985 70.375 389.86 70.9062C389.391 70.9062 388.969 71.0156 388.594 71.2344C388.251 71.4219 387.923 71.6406 387.61 71.8906C387.298 72.1094 386.985 72.3281 386.673 72.5469C386.36 72.7344 386.016 72.8281 385.641 72.8281C385.173 72.8281 384.844 72.7656 384.657 72.6406C384.469 72.4844 384.329 72.3281 384.235 72.1719C384.141 72.0156 384.048 71.875 383.954 71.75C383.891 71.625 383.735 71.5781 383.485 71.6094C383.423 71.2031 383.298 70.8281 383.11 70.4844C382.923 70.1094 382.719 69.75 382.501 69.4062C382.313 69.0625 382.11 68.7188 381.891 68.375C381.704 68 381.563 67.625 381.469 67.25C381.282 66.4375 381.204 65.5938 381.235 64.7188C381.266 63.8438 381.126 63 380.813 62.1875C380.876 61.75 380.923 61.3125 380.954 60.875C380.985 60.4062 381.001 59.9531 381.001 59.5156C381.001 58.6406 380.969 57.7812 380.907 56.9375C380.876 56.0625 380.844 55.1719 380.813 54.2656C380.594 53.9844 380.454 53.6719 380.391 53.3281C380.36 52.9531 380.329 52.5938 380.298 52.25C380.204 52.1562 380.094 52.0625 379.969 51.9688C379.876 51.875 379.813 51.75 379.782 51.5938C379.532 51.5312 379.344 51.5 379.219 51.5C378.782 51.5 378.407 51.6094 378.094 51.8281C377.813 52.0156 377.548 52.1094 377.298 52.1094C377.048 52.1094 376.813 52.0781 376.594 52.0156C376.376 51.9531 376.157 51.9219 375.938 51.9219C375.751 51.9219 375.641 51.9688 375.61 52.0625C375.61 52.125 375.548 52.1875 375.423 52.25C375.329 52.3125 375.11 52.375 374.766 52.4375C374.423 52.5 374.032 52.5625 373.594 52.625C373.188 52.6562 372.782 52.6875 372.376 52.7188C372.001 52.75 371.751 52.7656 371.626 52.7656C371.126 52.7656 370.751 52.6719 370.501 52.4844C370.219 52.2656 369.891 52.0312 369.516 51.7812C369.579 51.5938 369.61 51.4688 369.61 51.4062C369.61 51.0938 369.516 50.8438 369.329 50.6562C369.141 50.4375 369.048 50.25 369.048 50.0938C369.048 49.75 369.188 49.4844 369.469 49.2969C369.719 49.1094 369.86 48.8125 369.891 48.4062C370.61 48.0938 371.344 47.8594 372.094 47.7031C372.844 47.5469 373.61 47.4219 374.391 47.3281C375.173 47.2344 375.938 47.125 376.688 47C377.469 46.875 378.235 46.6719 378.985 46.3906C379.204 46.4219 379.407 46.4531 379.594 46.4844C379.813 46.4844 380.032 46.4844 380.251 46.4844C381.188 46.4844 382.11 46.3906 383.016 46.2031C383.954 45.9844 384.907 45.875 385.876 45.875C386.126 45.875 386.376 45.8906 386.626 45.9219C386.876 45.9531 387.126 46 387.376 46.0625C388.626 45.875 389.86 45.6719 391.079 45.4531C392.329 45.2344 393.61 45.0469 394.923 44.8906C395.548 44.8281 396.157 44.7812 396.751 44.75C397.376 44.6875 398.001 44.6094 398.626 44.5156C398.844 44.4844 399.001 44.4375 399.094 44.375C399.219 44.2812 399.282 44.1094 399.282 43.8594C399.563 43.9844 399.876 44.0469 400.219 44.0469C400.751 44.0469 401.266 43.9531 401.766 43.7656C402.266 43.5781 402.782 43.4844 403.313 43.4844C403.438 43.4844 403.548 43.5 403.641 43.5312C403.735 43.5312 403.829 43.5312 403.923 43.5312C404.141 43.5312 404.251 43.4375 404.251 43.25C404.282 43.0312 404.438 42.8906 404.719 42.8281C404.938 42.7656 405.251 42.7188 405.657 42.6875C406.063 42.6562 406.485 42.625 406.923 42.5938C407.391 42.5312 407.813 42.4688 408.188 42.4062C408.594 42.3125 408.891 42.1875 409.079 42.0312L409.407 41.5156C409.969 41.5469 410.376 41.7969 410.626 42.2656C410.907 42.7031 411.063 43.1875 411.094 43.7188C411.219 43.8438 411.391 43.9062 411.61 43.9062C411.86 43.875 412.079 43.8594 412.266 43.8594H412.407ZM437.01 44.1875V44.375C436.791 44.4375 436.682 44.5938 436.682 44.8438C436.338 45 435.978 45.125 435.603 45.2188C435.228 45.2812 434.869 45.3906 434.525 45.5469C434.182 45.5156 433.822 45.5 433.447 45.5C433.103 45.4688 432.76 45.4531 432.416 45.4531C431.478 45.4531 430.541 45.4844 429.603 45.5469C428.666 45.6094 427.728 45.6094 426.791 45.5469C426.353 45.7969 425.869 46 425.338 46.1562C424.838 46.2812 424.353 46.3438 423.885 46.3438C423.51 46.3438 423.182 46.2969 422.9 46.2031C422.15 46.5781 421.322 46.8906 420.416 47.1406C419.541 47.3906 418.65 47.6406 417.744 47.8906C416.838 48.1094 415.963 48.375 415.119 48.6875C414.307 48.9688 413.588 49.375 412.963 49.9062C412.9 50.3438 412.853 50.7812 412.822 51.2188C412.791 51.625 412.775 52.0312 412.775 52.4375C412.775 52.875 412.791 53.2812 412.822 53.6562C412.885 54.0312 412.994 54.4062 413.15 54.7812C413.307 54.8438 413.478 54.8906 413.666 54.9219C413.885 54.9531 414.072 54.9688 414.228 54.9688C414.385 54.9688 414.541 54.9531 414.697 54.9219C414.853 54.8594 414.963 54.75 415.025 54.5938C415.494 54.5312 415.963 54.5156 416.432 54.5469C416.9 54.5469 417.369 54.5469 417.838 54.5469C418.307 54.5469 418.76 54.5312 419.197 54.5C419.666 54.4688 420.119 54.3906 420.557 54.2656C421.057 54.1406 421.541 54.0625 422.01 54.0312C422.51 54 422.994 53.9688 423.463 53.9375C423.932 53.9062 424.416 53.8594 424.916 53.7969C425.416 53.7031 425.932 53.5312 426.463 53.2812C426.869 53.4375 427.275 53.5156 427.682 53.5156C428.119 53.5156 428.541 53.5469 428.947 53.6094C429.166 53.7656 429.338 53.9375 429.463 54.125C429.619 54.3125 429.697 54.5312 429.697 54.7812C429.697 55.2188 429.541 55.6562 429.228 56.0938C428.916 56.5312 428.666 56.9375 428.478 57.3125H427.963C427.213 57.3125 426.478 57.4219 425.76 57.6406C425.072 57.8281 424.369 58.0625 423.65 58.3438C422.963 58.5938 422.26 58.8281 421.541 59.0469C420.853 59.2344 420.135 59.3281 419.385 59.3281C419.26 59.3281 419.182 59.4062 419.15 59.5625C419.15 59.6875 419.119 59.7812 419.057 59.8438C418.9 59.8125 418.666 59.7969 418.353 59.7969C417.635 59.7969 416.947 59.875 416.291 60.0312C415.635 60.1875 414.963 60.2656 414.275 60.2656C414.088 60.2656 413.9 60.2656 413.713 60.2656C413.525 60.2344 413.338 60.2031 413.15 60.1719C412.994 60.4219 412.791 60.5938 412.541 60.6875C412.291 60.75 412.057 60.875 411.838 61.0625C411.744 61.3438 411.682 61.6875 411.65 62.0938C411.65 62.5 411.635 62.9219 411.603 63.3594C411.603 63.7656 411.572 64.1562 411.51 64.5312C411.447 64.9062 411.322 65.2031 411.135 65.4219C411.166 65.5781 411.291 65.6406 411.51 65.6094C411.728 65.5469 411.838 65.6406 411.838 65.8906C411.838 66.1719 411.807 66.4688 411.744 66.7812C411.682 67.0938 411.65 67.4062 411.65 67.7188C411.65 68.3125 411.713 68.9688 411.838 69.6875C411.994 70.375 412.213 71.0156 412.494 71.6094C412.807 72.2031 413.213 72.7031 413.713 73.1094C414.213 73.4844 414.838 73.6719 415.588 73.6719C416.088 73.6719 416.557 73.5781 416.994 73.3906C417.432 73.2031 417.791 72.8906 418.072 72.4531L418.307 72.4062C418.432 72.4062 418.541 72.4219 418.635 72.4531C418.76 72.4844 418.885 72.5 419.01 72.5C419.197 72.5 419.432 72.3906 419.713 72.1719C420.025 71.9219 420.353 71.6406 420.697 71.3281C421.072 71.0156 421.447 70.7188 421.822 70.4375C422.197 70.125 422.557 69.9062 422.9 69.7812C423.119 69.3438 423.322 68.9062 423.51 68.4688C423.728 68.0312 424.041 67.6875 424.447 67.4375V66.0781C424.76 65.7344 425.088 65.4219 425.432 65.1406C425.807 64.8594 426.088 64.5 426.275 64.0625C426.432 64.125 426.572 64.1719 426.697 64.2031C426.853 64.2344 427.01 64.25 427.166 64.25C427.322 64.25 427.478 64.2344 427.635 64.2031C427.822 64.1719 427.994 64.125 428.15 64.0625C428.4 64.4062 428.588 64.7969 428.713 65.2344C428.869 65.6406 429.057 66.0312 429.275 66.4062C428.994 66.9688 428.666 67.6406 428.291 68.4219C427.916 69.2031 427.51 69.9844 427.072 70.7656C426.635 71.5469 426.166 72.2969 425.666 73.0156C425.197 73.7031 424.728 74.2344 424.26 74.6094C424.166 74.7031 423.963 74.8125 423.65 74.9375C423.307 75.1875 422.994 75.4219 422.713 75.6406C422.432 75.8906 422.166 76.1719 421.916 76.4844C421.01 76.7656 420.135 77.1406 419.291 77.6094C418.478 78.0781 417.666 78.5312 416.853 78.9688C416.478 78.875 416.072 78.8281 415.635 78.8281C415.26 78.8281 414.885 78.8438 414.51 78.875C414.135 78.9375 413.728 78.9688 413.291 78.9688C413.166 78.8125 412.978 78.7031 412.728 78.6406C412.51 78.6094 412.432 78.4531 412.494 78.1719C411.432 78.1094 410.572 77.8125 409.916 77.2812C409.26 76.7812 408.697 76.1562 408.228 75.4062C407.791 74.6562 407.432 73.8438 407.15 72.9688C406.869 72.0938 406.572 71.25 406.26 70.4375V70.2969C406.26 70.1406 406.322 70.0469 406.447 70.0156C406.572 69.9844 406.635 69.8906 406.635 69.7344C406.635 69.6719 406.619 69.625 406.588 69.5938C406.494 69.25 406.416 68.9531 406.353 68.7031C406.291 68.4531 406.26 68.1562 406.26 67.8125C406.26 67.3125 406.291 66.8281 406.353 66.3594C406.416 65.8594 406.447 65.3594 406.447 64.8594C406.447 64.3594 406.385 63.9219 406.26 63.5469C406.385 63.3906 406.494 63.1875 406.588 62.9375C406.65 62.6562 406.697 62.375 406.728 62.0938C406.76 61.8125 406.775 61.5312 406.775 61.25C406.807 60.9688 406.853 60.7188 406.916 60.5C406.791 60.1562 406.682 59.8594 406.588 59.6094C406.494 59.3281 406.447 59 406.447 58.625V58.2969C406.76 57.7656 407.025 57.2188 407.244 56.6562C407.463 56.0938 407.697 55.5156 407.947 54.9219V54.7812C407.947 53.875 407.916 52.9688 407.853 52.0625C407.791 51.1562 407.76 50.25 407.76 49.3438V48.4531C407.76 48.1406 407.775 47.8438 407.807 47.5625C408.057 47.4375 408.244 47.2656 408.369 47.0469C408.494 46.8281 408.682 46.6562 408.932 46.5312H410.478L410.76 46.0625C410.853 45.9062 410.916 45.7344 410.947 45.5469C411.291 45.4531 411.619 45.3281 411.932 45.1719C412.275 44.9844 412.588 44.7969 412.869 44.6094C413.307 44.3594 413.697 44.1406 414.041 43.9531C414.416 43.7344 414.775 43.5625 415.119 43.4375C415.494 43.2812 415.885 43.1562 416.291 43.0625C416.697 42.9688 417.166 42.8906 417.697 42.8281C417.947 42.8281 418.103 42.7812 418.166 42.6875C418.26 42.5938 418.385 42.4844 418.541 42.3594C418.916 42.4219 419.291 42.4844 419.666 42.5469C420.041 42.5781 420.416 42.5938 420.791 42.5938C421.541 42.5938 422.244 42.4531 422.9 42.1719C423.838 42.1719 424.76 42.1562 425.666 42.125C426.603 42.0938 427.541 42.0781 428.478 42.0781C429.291 42.0781 430.103 42.1094 430.916 42.1719C431.728 42.2344 432.525 42.3438 433.307 42.5C433.588 42.4062 433.9 42.3594 434.244 42.3594C434.619 42.3594 434.994 42.4062 435.369 42.5C435.775 42.5625 436.166 42.5625 436.541 42.5C436.572 42.8438 436.65 43.1406 436.775 43.3906C436.932 43.6094 437.01 43.875 437.01 44.1875Z" fill="#F8EA01"/>
<g filter="url(#filter0_d)">
<rect x="2.9054" y="40.5478" width="95.213" height="17.0085" transform="rotate(-20 2.9054 40.5478)" fill="#00E6EC"/>
<rect x="11.3087" y="63.6328" width="95.213" height="17.0085" transform="rotate(-20 11.3087 63.6328)" fill="#00E6EC"/>
<rect x="19.7114" y="86.719" width="95.213" height="17.0085" transform="rotate(-20 19.7114 86.719)" fill="#00E6EC"/>
</g>
<circle cx="61.2783" cy="56.5965" r="18.7928" transform="rotate(-20 61.2783 56.5965)" fill="#F8EA01" stroke="#4C4804" stroke-width="0.5"/>
<circle cx="61.4731" cy="56.1923" r="9.52141" transform="rotate(-20 61.4731 56.1923)" fill="url(#paint0_radial)"/>
<circle cx="61.4731" cy="56.1923" r="9.39641" transform="rotate(-20 61.4731 56.1923)" stroke="black" stroke-opacity="0.7" stroke-width="0.25"/>
<ellipse cx="79.9425" cy="19.9983" rx="1.51602" ry="1.88983" transform="rotate(-20 79.9425 19.9983)" fill="black"/>
<path d="M4.16421 31.1825L15.1062 27.1999C15.5603 27.0346 16.0624 27.2688 16.2277 27.7229L18.3913 33.6674L5.80486 38.2485L3.64124 32.304C3.47596 31.8499 3.7101 31.3478 4.16421 31.1825Z" fill="#FF4162" stroke="black" stroke-width="0.25"/>
<defs>
<filter id="filter0_d" x="0.905396" y="7.98303" width="116.094" height="98.7187" filterUnits="userSpaceOnUse" color-interpolation-filters="sRGB">
<feFlood flood-opacity="0" result="BackgroundImageFix"/>
<feColorMatrix in="SourceAlpha" type="matrix" values="0 0 0 0 0 0 0 0 0 0 0 0 0 0 0 0 0 0 127 0"/>
<feOffset dy="2"/>
<feGaussianBlur stdDeviation="1"/>
<feColorMatrix type="matrix" values="0 0 0 0 0.0509804 0 0 0 0 0.270588 0 0 0 0 0.415686 0 0 0 1 0"/>
<feBlend mode="normal" in2="BackgroundImageFix" result="effect1_dropShadow"/>
<feBlend mode="normal" in="SourceGraphic" in2="effect1_dropShadow" result="shape"/>
</filter>
<radialGradient id="paint0_radial" cx="0" cy="0" r="1" gradientUnits="userSpaceOnUse" gradientTransform="translate(61.4731 56.1923) rotate(90) scale(9.52141)">
<stop stop-color="#FDFFFF"/>
<stop offset="1" stop-color="#CBD4D5"/>
</radialGradient>
</defs>
</svg>
