<svg width="24" height="26" viewBox="0 0 24 26" fill="none" xmlns="http://www.w3.org/2000/svg">
<path d="M21.4286 0.615234H2.57143C1.15179 0.615234 0 1.79535 0 3.24991V22.5709C0 24.0254 1.15179 25.2056 2.57143 25.2056H21.4286C22.8482 25.2056 24 24.0254 24 22.5709V3.24991C24 1.79535 22.8482 0.615234 21.4286 0.615234ZM18.8089 9.33163C18.8196 9.48532 18.8196 9.6445 18.8196 9.79819C18.8196 14.5571 15.2839 20.0405 8.82321 20.0405C6.83036 20.0405 4.98214 19.4477 3.42857 18.4268C3.7125 18.4597 3.98571 18.4707 4.275 18.4707C5.91964 18.4707 7.43036 17.8998 8.63571 16.9338C7.09286 16.9008 5.79643 15.8634 5.35179 14.4363C5.89286 14.5187 6.38036 14.5187 6.9375 14.3705C5.33036 14.0356 4.125 12.5866 4.125 10.8356V10.7917C4.59107 11.0606 5.1375 11.2253 5.71071 11.2473C5.2288 10.9188 4.83374 10.4733 4.56079 9.95031C4.28784 9.42738 4.14548 8.84334 4.14643 8.25031C4.14643 7.58067 4.31786 6.96591 4.62321 6.43348C6.35357 8.61807 8.95179 10.0452 11.8661 10.1989C11.3679 7.75631 13.1518 5.77481 15.2946 5.77481C16.3071 5.77481 17.2179 6.20844 17.8607 6.91102C18.6536 6.75733 19.4143 6.45544 20.0893 6.04377C19.8268 6.87808 19.275 7.58067 18.5464 8.02527C19.2536 7.94842 19.9393 7.74533 20.5714 7.4654C20.0946 8.18445 19.4946 8.82116 18.8089 9.33163Z" fill="#00E6EC"/>
</svg>
